<svg width="36" height="36" viewBox="0 0 36 36" fill="currentColor" xmlns="http://www.w3.org/2000/svg">
<path d="M13.875 33L13.275 28.2C12.95 28.075 12.644 27.925 12.357 27.75C12.07 27.575 11.7885 27.3875 11.5125 27.1875L7.04999 29.0625L2.92499 21.9375L6.78749 19.0125C6.76249 18.8375 6.74999 18.669 6.74999 18.507V17.4945C6.74999 17.3315 6.76249 17.1625 6.78749 16.9875L2.92499 14.0625L7.04999 6.9375L11.5125 8.8125C11.7875 8.6125 12.075 8.425 12.375 8.25C12.675 8.075 12.975 7.925 13.275 7.8L13.875 3H22.125L22.725 7.8C23.05 7.925 23.3565 8.075 23.6445 8.25C23.9325 8.425 24.2135 8.6125 24.4875 8.8125L28.95 6.9375L33.075 14.0625L29.2125 16.9875C29.2375 17.1625 29.25 17.3315 29.25 17.4945V18.5055C29.25 18.6685 29.225 18.8375 29.175 19.0125L33.0375 21.9375L28.9125 29.0625L24.4875 27.1875C24.2125 27.3875 23.925 27.575 23.625 27.75C23.325 27.925 23.025 28.075 22.725 28.2L22.125 33H13.875ZM16.5 30H19.4625L19.9875 26.025C20.7625 25.825 21.4815 25.5315 22.1445 25.1445C22.8075 24.7575 23.4135 24.2885 23.9625 23.7375L27.675 25.275L29.1375 22.725L25.9125 20.2875C26.0375 19.9375 26.125 19.569 26.175 19.182C26.225 18.795 26.25 18.401 26.25 18C26.25 17.599 26.225 17.2055 26.175 16.8195C26.125 16.4335 26.0375 16.0645 25.9125 15.7125L29.1375 13.275L27.675 10.725L23.9625 12.3C23.4125 11.725 22.8065 11.244 22.1445 10.857C21.4825 10.47 20.7635 10.176 19.9875 9.975L19.5 6H16.5375L16.0125 9.975C15.2375 10.175 14.519 10.469 13.857 10.857C13.195 11.245 12.5885 11.7135 12.0375 12.2625L8.32499 10.725L6.86249 13.275L10.0875 15.675C9.96249 16.05 9.87499 16.425 9.82499 16.8C9.77499 17.175 9.74999 17.575 9.74999 18C9.74999 18.4 9.77499 18.7875 9.82499 19.1625C9.87499 19.5375 9.96249 19.9125 10.0875 20.2875L6.86249 22.725L8.32499 25.275L12.0375 23.7C12.5875 24.275 13.194 24.7565 13.857 25.1445C14.52 25.5325 15.2385 25.826 16.0125 26.025L16.5 30ZM18.075 23.25C19.525 23.25 20.7625 22.7375 21.7875 21.7125C22.8125 20.6875 23.325 19.45 23.325 18C23.325 16.55 22.8125 15.3125 21.7875 14.2875C20.7625 13.2625 19.525 12.75 18.075 12.75C16.6 12.75 15.356 13.2625 14.343 14.2875C13.33 15.3125 12.824 16.55 12.825 18C12.826 19.45 13.3325 20.6875 14.3445 21.7125C15.3565 22.7375 16.6 23.25 18.075 23.25Z"/>
</svg>
